{
    "asset" : {
        "generator" : "Khronos glTF Blender I/O v1.8.2",
        "version" : "2.0"
    },
    "scene" : 0,
    "scenes" : [
        {
            "name" : "Scene",
            "nodes" : [
                0
            ]
        }
    ],
    "nodes" : [
        {
            "mesh" : 0,
            "name" : "fall fireweed painted 02",
            "rotation" : [
                0.07502399384975433,
                -0.013082941062748432,
                0.17129205167293549,
                0.9822725057601929
            ],
            "scale" : [
                0.0027581844478845596,
                0.0027581846807152033,
                0.0027581844478845596
            ],
            "translation" : [
                -0.010019630193710327,
                0.04624533653259277,
                0.04706273227930069
            ]
        }
    ],
    "materials" : [
        {
            "doubleSided" : true,
            "name" : "Layer_1_mtl",
            "pbrMetallicRoughness" : {
                "baseColorFactor" : [
                    0.8000000715255737,
                    0.06576357781887054,
                    0.7534329891204834,
                    1
                ],
                "metallicFactor" : 0
            }
        }
    ],
    "meshes" : [
        {
            "name" : "fall fireweed painted 02",
            "primitives" : [
                {
                    "attributes" : {
                        "POSITION" : 0,
                        "NORMAL" : 1,
                        "TEXCOORD_0" : 2
                    },
                    "indices" : 3,
                    "material" : 0
                }
            ]
        }
    ],
    "accessors" : [
        {
            "bufferView" : 0,
            "componentType" : 5126,
            "count" : 25687,
            "max" : [
                131.09475708007812,
                345.03656005859375,
                33.486419677734375
            ],
            "min" : [
                -38.143592834472656,
                -7.996772766113281,
                -112.54371643066406
            ],
            "type" : "VEC3"
        },
        {
            "bufferView" : 1,
            "componentType" : 5126,
            "count" : 25687,
            "type" : "VEC3"
        },
        {
            "bufferView" : 2,
            "componentType" : 5126,
            "count" : 25687,
            "type" : "VEC2"
        },
        {
            "bufferView" : 3,
            "componentType" : 5123,
            "count" : 123228,
            "type" : "SCALAR"
        }
    ],
    "bufferViews" : [
        {
            "buffer" : 0,
            "byteLength" : 308244,
            "byteOffset" : 0
        },
        {
            "buffer" : 0,
            "byteLength" : 308244,
            "byteOffset" : 308244
        },
        {
            "buffer" : 0,
            "byteLength" : 205496,
            "byteOffset" : 616488
        },
        {
            "buffer" : 0,
            "byteLength" : 246456,
            "byteOffset" : 821984
        }
    ],
    "buffers" : [
        {
            "byteLength" : 1068440,
            "uri" : "data:application/octet-stream;base64,"
        }
    ]
}
