{
    "asset" : {
        "generator" : "Khronos glTF Blender I/O v1.8.2",
        "version" : "2.0"
    },
    "scene" : 0,
    "scenes" : [
        {
            "name" : "Scene",
            "nodes" : [
                0,
                1
            ]
        }
    ],
    "nodes" : [
        {
            "mesh" : 0,
            "name" : "Text",
            "rotation" : [
                0.7071068286895752,
                0,
                0,
                0.7071068286895752
            ],
            "translation" : [
                -2.279216766357422,
                2.8643100261688232,
                -0.09803448617458344
            ]
        },
        {
            "mesh" : 1,
            "name" : "Suzanne",
            "translation" : [
                -0.03851485252380371,
                0.998464822769165,
                -0.32106447219848633
            ]
        }
    ],
    "materials" : [
        {
            "doubleSided" : true,
            "name" : "Material.001",
            "pbrMetallicRoughness" : {
                "baseColorFactor" : [
                    0.7192431688308716,
                    0.8000000715255737,
                    0.7515634298324585,
                    1
                ],
                "roughnessFactor" : 0.4502262473106384
            }
        }
    ],
    "meshes" : [
        {
            "name" : "Text",
            "primitives" : [
                {
                    "attributes" : {
                        "POSITION" : 0,
                        "NORMAL" : 1,
                        "TEXCOORD_0" : 2
                    },
                    "indices" : 3,
                    "material" : 0
                }
            ]
        },
        {
            "name" : "Suzanne",
            "primitives" : [
                {
                    "attributes" : {
                        "POSITION" : 4,
                        "NORMAL" : 5,
                        "TEXCOORD_0" : 6
                    },
                    "indices" : 7,
                    "material" : 0
                }
            ]
        }
    ],
    "accessors" : [
        {
            "bufferView" : 0,
            "componentType" : 5126,
            "count" : 5593,
            "max" : [
                4.22599983215332,
                0.19525012373924255,
                0.23000000417232513
            ],
            "min" : [
                0.04500000178813934,
                0,
                -0.6910000443458557
            ],
            "type" : "VEC3"
        },
        {
            "bufferView" : 1,
            "componentType" : 5126,
            "count" : 5593,
            "type" : "VEC3"
        },
        {
            "bufferView" : 2,
            "componentType" : 5126,
            "count" : 5593,
            "type" : "VEC2"
        },
        {
            "bufferView" : 3,
            "componentType" : 5123,
            "count" : 8652,
            "type" : "SCALAR"
        },
        {
            "bufferView" : 4,
            "componentType" : 5126,
            "count" : 556,
            "max" : [
                1.3671875,
                0.984375,
                0.8515625
            ],
            "min" : [
                -1.3671875,
                -0.984375,
                -0.8515625
            ],
            "type" : "VEC3"
        },
        {
            "bufferView" : 5,
            "componentType" : 5126,
            "count" : 556,
            "type" : "VEC3"
        },
        {
            "bufferView" : 6,
            "componentType" : 5126,
            "count" : 556,
            "type" : "VEC2"
        },
        {
            "bufferView" : 7,
            "componentType" : 5123,
            "count" : 2904,
            "type" : "SCALAR"
        }
    ],
    "bufferViews" : [
        {
            "buffer" : 0,
            "byteLength" : 67116,
            "byteOffset" : 0
        },
        {
            "buffer" : 0,
            "byteLength" : 67116,
            "byteOffset" : 67116
        },
        {
            "buffer" : 0,
            "byteLength" : 44744,
            "byteOffset" : 134232
        },
        {
            "buffer" : 0,
            "byteLength" : 17304,
            "byteOffset" : 178976
        },
        {
            "buffer" : 0,
            "byteLength" : 6672,
            "byteOffset" : 196280
        },
        {
            "buffer" : 0,
            "byteLength" : 6672,
            "byteOffset" : 202952
        },
        {
            "buffer" : 0,
            "byteLength" : 4448,
            "byteOffset" : 209624
        },
        {
            "buffer" : 0,
            "byteLength" : 5808,
            "byteOffset" : 214072
        }
    ],
    "buffers" : [
        {
            "byteLength" : 219880,
            "uri" : "data:application/octet-stream;base64,"
        }
    ]
}
