{
    "asset" : {
        "generator" : "Khronos glTF Blender I/O v1.8.2",
        "version" : "2.0"
    },
    "scene" : 0,
    "scenes" : [
        {
            "name" : "Scene",
            "nodes" : [
                0
            ]
        }
    ],
    "nodes" : [
        {
            "mesh" : 0,
            "name" : "sunflower",
            "rotation" : [
                0.7071068286895752,
                0,
                0,
                0.7071068286895752
            ],
            "scale" : [
                0.20149224996566772,
                0.20149224996566772,
                0.20149224996566772
            ],
            "translation" : [
                -0.4613454341888428,
                0.3271546959877014,
                0
            ]
        }
    ],
    "materials" : [
        {
            "doubleSided" : true,
            "name" : "Material",
            "pbrMetallicRoughness" : {
                "baseColorFactor" : [
                    0,
                    0.07618153840303421,
                    0.8000000715255737,
                    1
                ],
                "metallicFactor" : 0,
                "roughnessFactor" : 0.5
            }
        }
    ],
    "meshes" : [
        {
            "name" : "sunflower",
            "primitives" : [
                {
                    "attributes" : {
                        "POSITION" : 0,
                        "NORMAL" : 1,
                        "TEXCOORD_0" : 2
                    },
                    "indices" : 3,
                    "material" : 0
                }
            ]
        }
    ],
    "accessors" : [
        {
            "bufferView" : 0,
            "componentType" : 5126,
            "count" : 5590,
            "max" : [
                4.22599983215332,
                0.2614303231239319,
                0.23000000417232513
            ],
            "min" : [
                0.04500000178813934,
                0,
                -0.6910000443458557
            ],
            "type" : "VEC3"
        },
        {
            "bufferView" : 1,
            "componentType" : 5126,
            "count" : 5590,
            "type" : "VEC3"
        },
        {
            "bufferView" : 2,
            "componentType" : 5126,
            "count" : 5590,
            "type" : "VEC2"
        },
        {
            "bufferView" : 3,
            "componentType" : 5123,
            "count" : 8652,
            "type" : "SCALAR"
        }
    ],
    "bufferViews" : [
        {
            "buffer" : 0,
            "byteLength" : 67080,
            "byteOffset" : 0
        },
        {
            "buffer" : 0,
            "byteLength" : 67080,
            "byteOffset" : 67080
        },
        {
            "buffer" : 0,
            "byteLength" : 44720,
            "byteOffset" : 134160
        },
        {
            "buffer" : 0,
            "byteLength" : 17304,
            "byteOffset" : 178880
        }
    ],
    "buffers" : [
        {
            "byteLength" : 196184,
            "uri" : "sunflower.bin"
        }
    ]
}
